<?xml version="1.0" encoding="UTF-8"?> <svg xmlns="http://www.w3.org/2000/svg" clip-rule="evenodd" fill-rule="evenodd" stroke-linejoin="round" stroke-miterlimit="2" viewBox="0 0 4409 3242"><g fill-rule="nonzero"><path d="m3685.32 1969.23h-71.012v579.675c22.75 1.566 47.208 3.254 73.041 5.033-18.154 25.525-224.241 28.671-260.571.246 30.65-1.679 54.621-2.992 80.588-4.413v-525.021c-1.883-.595-3.763-1.187-5.646-1.779-23.125 77.763-46.275 155.521-69.371 233.296-28.229 95.058-55.991 190.258-85.154 285.029-3.6 11.713-14.533 21.163-22.071 31.663-7.066-11.129-17.008-21.371-20.762-33.525-51.442-166.421-102-333.117-152.9-499.704-2.275-7.45-5.721-14.542-13.571-20.567v529.05c24.546 2.183 48.471 4.308 75.879 6.746-28.025 25.287-148.162 25.466-177.871-.192 27.063-2.133 49.9-3.929 74.434-5.862v-576.655c-24.73-1.47-46.942-2.791-69.159-4.112-.929-3.146-1.858-6.288-2.783-9.433 8.179-3.442 16.287-9.63 24.554-9.855 39.771-1.079 79.754 1.721 119.333-1.262 35.463-2.679 52.521 8.483 62.292 44.5 31.508 116.129 66.879 231.212 100.888 346.662 4.6 15.617 9.92 31.021 23.52 46.68 21.609-72.43 43.213-144.855 64.83-217.28 18.641-62.433 38.841-124.466 55.2-187.491 6.795-26.167 19.1-33.913 44.512-32.85 41.15 1.721 82.433.029 123.638.787 10.408.192 20.745 4.192 31.116 6.442-.983 4.729-1.971 9.462-2.954 14.192"></path><path d="m1993.8 2548.66c42.334 0 82.275 4.525 120.792-.958 76.229-10.854 118.092-51.229 123.817-128.721 7.183-97.254 10.591-195.513 5.2-292.758-5.354-96.525-47.559-140.875-130.375-152.067-38.442-5.196-78.167-.888-119.434-.888zm-173.012 4.871c21.821-1.221 43.641-2.442 68.004-3.804v-577.467c-23.646-1.408-45.617-2.717-75.692-4.504 10.667-9.567 15.896-18.296 20.95-18.196 107.788 2.15 216.638-3.112 323.025 10.588 106.896 13.766 190.263 117.087 206.263 237.933 17.316 130.758-14.625 245.342-124.284 329.65-44.058 33.871-95.429 42.533-148.454 43.721-80.962 1.808-161.97 1.787-242.958 1.866-9.658.009-19.325-4.216-28.987-6.479.712-4.437 1.42-8.875 2.133-13.308"></path><path d="m2471.12 2553.26c23.546-1.204 47.092-2.404 72.187-3.687v-577.667c-25.65-1.234-49.016-2.359-74.375-3.579 16.505-22.209 317.375-31.613 441.813-15.83v155.196c-24.675-35.208-46.208-94.608-87.863-117.729-46.625-25.879-111.483-18.892-172.608-26.746v278.629c99.25 8.455 104.479 4.138 136.321-106.808v260.679c-13.104-41.346-14.75-83.183-36.496-104.687-20.996-20.763-62.717-20.563-100.475-30.992v289.596c54.563 0 108.179 2.492 161.454-.708 52.1-3.134 72.004-45.713 89.654-86.571 11.334-26.238 18.609-54.229 27.7-81.438 4.005.729 8.009 1.459 12.009 2.188-4.425 58.096-7.913 116.296-14.575 174.133-.75 6.517-19.375 15.596-29.775 15.675-134.95 1.038-269.909.804-404.867.254-7.612-.029-15.204-5.558-22.804-8.529.9-3.791 1.8-7.587 2.7-11.379"></path><path d="m249.259 2317.11h181.592c-29.958-90.517-58.654-177.225-91.204-275.575-32.579 99.329-60.984 185.929-90.388 275.575m169.975 226.116c25.442-2.041 50.884-4.087 82.404-6.616-19.766-61.792-37.654-120.855-58.42-178.888-2.788-7.787-19.98-14.333-30.717-14.683-48.246-1.567-96.596-1.521-144.846-.054-10.942.333-28.612 6.162-31.346 13.733-20.904 57.958-38.879 116.971-58.829 178.954 30.996 3.2 56.213 5.804 81.429 8.408-.233 3.838-.466 7.675-.7 11.513h-149.679c50.708-11.488 50.279-56.504 62.196-91.167 62.175-180.8 122.983-362.075 185.504-542.754 5.704-16.479 20.175-29.921 30.571-44.775 11.212 15.6 27.104 29.642 32.912 47.046 62.73 187.971 124.546 376.258 184.834 565.025 11.025 34.533 22.641 60.154 65.529 51.583 6.108-1.221 13.671 4.854 19.183 16.013h-269.108c-.304-4.446-.608-8.892-.917-13.338"></path><path d="m3766.87 1955.04h236.154c.259 4.088.517 8.175.78 12.263-21.375 1.62-42.746 3.241-71.755 5.445 49.355 86.738 97.034 170.53 149.513 262.763 48.067-91.433 92.2-175.375 139.412-265.183h-88.529c15.659-26.617 141.05-31.421 177.634-10.317-.942 2.421-2.275 7.004-2.871 6.908-55.442-8.725-75.821 27.021-93.246 70.163-11.629 28.783-25.408 57.775-43.758 82.579-95.68 129.316-85.346 276.933-76.467 427.837 26.983 3.059 54.617 6.188 82.25 9.317-46.313 27.275-250.7 22.383-274.329-2.971 31.029-1.375 56.629-2.512 86.704-3.846 0-91.495 9.233-183.041-3.546-271.404-7.392-51.1-50.087-97.162-77.229-145.304-20.2-35.829-40.633-71.533-61.529-106.958-18.109-30.692-28.959-71.254-84.8-53.804 1.871-5.83 3.741-11.659 5.612-17.488"></path><path d="m1440.82 2110.94c-3.333-.038-6.671-.08-10.004-.117-25.267 77.175-50.538 154.346-76.45 233.496h163.408c-26.5-80.371-51.725-156.875-76.954-233.38m310.558 452.992h-243.792c-.512-3.371-1.025-6.742-1.541-10.108 24.262-2.992 48.525-5.983 77.437-9.546-17.954-54.775-34.491-107.117-52.796-158.833-2.437-6.896-13.466-11.246-21.204-15.529-3.296-1.825-8.366-.575-12.625-.492-49.566.979-99.133 2.004-148.7 3.012-19.904 55.355-39.808 110.705-61.787 171.83 30.512 3.05 55.391 5.533 80.271 8.02-.221 3.592-.438 7.188-.659 10.78l-148.345-.001c65.129-15.112 60.279-76.17 76.145-120.258 55.659-154.641 106.913-310.862 161.017-466.071 4.2-12.041 17.579-20.883 26.692-31.208 7.766 10.233 18.958 19.333 22.796 30.879 57.183 172.1 114.137 344.288 169.229 517.063 11.237 35.245 21.208 64.941 67.062 56.337 3.55-.666 8.213 4.584 12.359 7.084-.521 2.345-1.038 4.695-1.559 7.041"></path><path d="m1100.32 1968.84c12.621-14.659 24.138-28.034 42.571-49.446v173.508c-2.975.642-5.954 1.279-8.929 1.921-5.133-13.779-9.871-27.725-15.471-41.312-30.85-74.842-86.054-111.088-165.446-108.938-64.779 1.75-117.496 39.779-129.037 103.092-23.071 126.558-23.942 254.287-6.017 381.791 16.892 120.205 170.654 134.059 230.754 75.321 27.725-27.104 47.217-62.829 69.267-95.441 7.467-11.05 11.312-24.555 24.554-35.475v185.529c-17.65-19.742-29.275-32.75-39.283-43.942-38.888 14.821-75.617 35.546-114.771 42.408-94.429 16.546-169.196-22.433-226.75-96.408-90.842-116.762-95.925-296.862-12.558-419.996 85.774-126.7 213.304-154.087 351.116-72.612"></path><path d="m1831.71 369.65c-54.15 37.191-100.791 69.22-147.429 101.25-3.825-5.75-7.65-11.505-11.475-17.255 55.842-40.6 111.683-81.195 167.388-121.7 57.52 37.721 112.854 74.009 168.191 110.296-61.475.788-96.625-53.721-149.983-70.225-1.438 4.55-2.138 5.821-2.208 7.125-5.917 115.438-5.867 115.363 98.125 183.609 16.045 10.533 31.412 22.095 47.095 33.183-2.779 4.1-5.562 8.204-8.341 12.304-21.042-13.875-41.809-28.192-63.204-41.496-22.338-13.891-45.28-26.8-74.809-44.171 0 40.455-1.937 76.425 1.154 111.955.955 10.962 14.067 22.729 24.288 30.695 41.937 32.709 84.908 64.096 127.5 95.967-3.121 4.479-6.242 8.954-9.363 13.433-45.6-31.904-91.2-63.804-143.987-100.737 0 43.717-1.417 81.133.979 118.304.613 9.492 11.571 20.842 20.721 26.833 42.529 27.842 86.092 54.1 126.625 86.334-54.292-9.634-95.058-47.721-148.358-75.213 0 35.921-1.28 69.013.879 101.875.558 8.492 10.6 17.979 18.529 24.088 35.329 27.208 72.033 52.646 106.946 80.354 9.379 7.446 14.2 20.637 15.45 35.142-44.704-32.142-89.404-64.288-141.95-102.071v43.821c0 179.058.171 358.12-.367 537.179-.037 12.596-5.283 25.175-8.104 37.758-5.179-.95-10.358-1.904-15.533-2.858v-616.521c-54.605 38.221-102.417 71.692-150.23 105.158-3.145-2.158-6.291-4.321-9.441-6.483 5.321-8.979 8.625-20.583 16.308-26.471 31.508-24.142 62.871-49.108 97.113-68.871 34.77-20.062 51.854-44.904 45.141-85.7-2.683-16.312-.441-33.437-.441-54.371-56.78 27.542-98.946 75.063-153.655 98.605-3.141-5.384-6.283-10.767-9.425-16.15 38.563-27.625 75.467-58.063 116.163-82.071 39.017-23.021 56.442-51.838 49.117-96.892-2.809-17.283-.455-35.408-.455-58.446-59.47 29.4-99.254 79.571-156.879 97.229-2.766-4.233-5.537-8.47-8.304-12.708 35.867-25.562 70.05-54.054 108.038-75.929 45.67-26.292 67.77-60.392 58.045-113.621-2.483-13.575-.375-27.992-.375-46.233-59.8 24.625-98.308 79.425-157.32 95.421-2.642-4.246-5.288-8.496-7.934-12.742 40.571-29.104 79.696-60.571 122.167-86.571 34.354-21.029 50.1-46.379 44.087-86.658-2.8-18.738-.479-38.242-.479-65.754"></path><path d="m2026.93 540.282c40.237-29.017 78.754-60.929 121.245-86.146 35.363-20.988 49.659-46.842 44.5-86.779-2.479-19.192-.425-38.967-.425-63.921-60.108 27.55-100.87 79.792-158.591 99.362-2.746-4.737-5.492-9.475-8.238-14.212 38.409-27.725 74.884-58.833 115.763-82.242 42.8-24.504 59.146-56.8 52.137-104.208-2.179-14.733-.341-30.058-.341-52.5-54.413 35.983-102.138 67.55-149.863 99.112-3.508-5.462-7.017-10.929-10.521-16.391 55.279-39.925 110.554-79.85 167.463-120.954 55.316 36.166 110.629 72.325 167.329 109.391-25.458 7.884-25.333 7.7-75.196-25.846-22.625-15.22-45.85-29.55-76.987-49.537 0 43.617-1.896 78.471 1.087 112.904.971 11.225 12.721 23.996 22.904 31.492 32.517 23.933 66.934 45.266 99.879 68.641 8.634 6.121 14.6 16.005 15.571 30.321-44.562-28.104-89.125-56.204-140.012-88.291 0 42.037-1.846 75.87 1.004 109.308.996 11.692 11.283 25.371 21.258 33.008 33.096 25.346 68.292 47.925 101.988 72.521 10.146 7.404 18.025 17.913 26.941 27-2.862 3.229-5.729 6.458-8.595 9.688-45.163-31.146-90.325-62.292-143.104-98.688-.001 43.596-2.642 79.913 1.379 115.479 1.479 13.075 16.566 27.584 29.12 35.888 39.967 26.454 81.663 50.304 122.692 75.158-2.471 4.596-4.941 9.196-7.412 13.792-46.9-26.671-93.8-53.346-146.13-83.109.001 34.155-1.524 64.746.855 95.03.795 10.129 9.554 22.004 18.1 28.733 35.025 27.587 71.633 53.15 107.062 80.242 9.813 7.504 17.567 17.708 26.267 26.675-3.071 3.162-6.138 6.329-9.204 9.491-45.617-32.625-91.234-65.254-144.167-103.112 0 200.412.179 389.25-.371 578.083-.041 13.921-5.341 27.825-8.2 41.733-4.854-1.212-9.704-2.429-14.554-3.641v-614.088c-54.396 37.492-102.921 70.938-151.45 104.388-3.025-3.017-6.05-6.034-9.071-9.05 6.925-9.138 12.296-20.292 21.063-27.038 26.958-20.75 53.004-44.662 83.421-58.55 67.991-31.041 61.225-85.616 54.012-146.116-57.837 23.191-95.937 78.625-154.458 94.141-2.509-4.387-5.013-8.779-7.521-13.166 38.579-27.759 75.454-58.425 116.237-82.446 39.084-23.017 56.721-51.896 50.071-96.963-2.587-17.525-.421-35.75-.421-58.279-60.029 27.917-99.983 79.825-157.479 98.629-2.346-4.979-4.691-9.958-7.037-14.937"></path><path d="m2700.28 915.211c-44.609-26.533-89.221-53.063-133.934-79.654-23.245 64.287-12.116 103.65 37.255 140.687 35.208 26.413 69.374 54.213 104.004 81.392-2.688 4.071-5.375 8.142-8.067 12.212-45.162-31.995-90.325-63.995-143.696-101.808v615.5c-9.554 1.9-10.966 2.467-12.337 2.375-1.363-.092-2.963-.512-3.959-1.371-1.983-1.704-4.462-3.525-5.216-5.804-1.317-3.95-2.038-8.283-2.038-12.454-.092-195.846-.079-391.692-.079-595.533-52.45 36.083-101.15 69.595-149.854 103.104-3.021-2.709-6.042-5.421-9.059-8.129 3.546-6.734 5.413-15.709 10.913-19.83 32.929-24.666 64.946-51.337 100.637-71.32 41.459-23.213 57.65-54.567 50.509-100.492-1.925-12.383-.292-25.317-.292-46.671-54.812 37.563-104.558 71.654-154.3 105.742-3.171-3.442-6.341-6.884-9.508-10.321 5.621-7.325 9.946-16.4 17.079-21.675 35.367-26.154 70.379-53.063 107.667-76.25 29.67-18.454 44.558-40.413 39.937-76.292-2.821-21.891-.521-44.441-.521-73.887-55.554 37.446-105.458 71.091-155.362 104.733-3.6-5.579-7.2-11.154-10.796-16.733 28.708-21.054 55.225-46.459 86.571-62.292 72.866-36.8 97.166-92.725 74.096-175.179-48.809 33.304-98.534 67.233-148.259 101.162-2.912-3.041-5.829-6.083-8.745-9.129 6.508-8.671 11.549-19.241 19.812-25.654 22.404-17.375 46.179-32.971 69.396-49.296 83.825-58.937 83.821-58.941 69.971-173.337-48.892 34.187-95.621 66.866-144.9 101.325-1.217-30.45 44.462-68.704 158.766-138.638 53.996 35.888 108.996 72.438 163.996 108.992-2.862 4.412-5.725 8.825-8.587 13.233-44.896-27.912-89.796-55.825-141.484-87.958 0 42.771-1.796 80.35 1.129 117.558.842 10.721 13.475 22.954 23.763 30.071 40.617 28.083 82.446 54.413 123.829 81.388l-7.512 13.395c-43.98-26.316-87.959-52.633-132.092-79.041-27.196 66.346-11.958 118.758 42.854 156.804 32.767 22.746 63.979 47.733 95.892 71.712l-8.059 12.863c-45.187-30.9-90.37-61.8-141.545-96.792 0 41.634-1.396 79.342.95 116.813.612 9.791 10.996 21.662 20.112 27.75 35.838 23.908 73.088 45.691 109.5 68.754 7.429 4.704 13.513 11.533 20.213 17.387-2.884 3.53-5.767 7.059-8.65 10.588"></path><path d="m1296.05 2899.01v88.505c29.063 0 54.517 1.545 79.696-.417 27.483-2.142 44.633-17.708 43.971-46.875-.638-28.017-18.675-39.942-44.363-40.988-25.279-1.029-50.633-.225-79.304-.225m-2.104 198.384c36.471 0 69.617 4.537 100.479-1.892 15.758-3.279 37.879-26.137 37.992-40.296.112-14.021-22.025-37.358-37.617-40.458-31.967-6.358-66.079-1.908-100.854-1.908zm138.204-105.071c9.688 28.308 26.508 54.183 25.138 79.058-1.909 34.629-35.325 46.354-65.905 48.6-39.32 2.884-79.012.7-121.65.7v-244.991c29.875 0 59.221-.317 88.555.083 31.654.433 69.133.308 79.404 34.942 7.6 25.616-3.254 56.712-5.542 81.608"></path><path d="m2992.09 3003.8c32.45 0 60.975 2.508 88.846-.692 29-3.325 45.095-23.042 44.633-52.95-.471-30.317-17.825-47.942-47.133-50.262-27.809-2.2-55.921-.475-86.346-.475zm-25.317-128.121c30.488 0 57.317-.133 84.15.029 60.809.371 89.233 16.063 98.525 54.163 10.034 41.116-4.312 65.966-58.721 98.179 21.563 29.6 42.996 59.016 64.429 88.437-1.704 2.484-3.408 4.967-5.108 7.45-10.621-5.562-23.091-9.196-31.408-17.162-11.084-10.617-20.696-23.684-27.854-37.317-21.255-40.5-53.917-49.804-95.68-38.237-18.162 26.745 10.85 67.233-28.333 99.037z"></path><path d="m2428.16 3096.58c56.654 4.495 109.604 11.062 143.913-43.251 22.975-36.379 19.537-85.87-7.167-119.562-27.392-34.571-79.3-45.254-136.746-27.358zm-27.183-218.713c146.55-9.471 212.066 29.304 211.904 121.046-.158 92.208-67.254 131.6-211.904 120.25z"></path><path d="m2727.67 3103.39h142.508c-.254 4.679-.508 9.362-.767 14.041h-167.425v-238.712h166.3c.48 3.917.959 7.833 1.438 11.75-43.563 18.537-92.679-.188-140.971 11.6v83.454c42.117 2.308 83.375 4.571 124.633 6.829-.304 5.496-.6 10.988-.9 16.484h-124.816z"></path><path d="m1661.77 2898.47c-54.237-2.292-95.854 38.296-97.829 95.404-1.975 57.163 35.813 101.854 88.758 104.979 54.767 3.229 97.05-36.125 99.967-93.05 3.021-58.887-36.042-105.012-90.896-107.333m116.459 105.492c-2.592 68.77-58.213 120.991-125.346 117.687-68.575-3.375-116.975-57.517-114.513-128.087 2.396-68.571 58.213-120.988 125.346-117.7 68.438 3.35 117.163 57.858 114.513 128.1"></path><path d="m1885.35 2874.26c3.713 10 10.288 19.904 10.625 30.017 1.284 38.296-.225 76.683.754 114.996 1.33 52.137 28.13 80.45 73.755 79.85 43.82-.579 69.087-27.338 70.583-78.363 1.4-47.791.3-95.654.3-143.483 4.342-1.108 8.687-2.217 13.029-3.325 4.217 8.542 11.821 16.983 12.075 25.642 1.208 41.137 2.067 82.42-.05 123.491-3.3 63.975-40.229 99.379-99.379 98.642-59.213-.738-94.246-36.929-95.863-101.392-1.195-47.687-.233-95.429-.233-143.146 4.8-.975 9.604-1.954 14.404-2.929"></path><path d="m2186.2 2877.18v224.129h136.583c-.112 5.05-.225 10.104-.337 15.154h-159.884c-.575-78.566-.858-159.391.167-240.145 7.825.287 15.646.575 23.471.862"></path></g></svg> 